<?xml version="1.0" encoding="iso-8859-1"?>
<!-- Generator: Adobe Illustrator 23.1.1, SVG Export Plug-In . SVG Version: 6.00 Build 0)  -->
<svg version="1.1" id="&#xB808;&#xC774;&#xC5B4;_1" xmlns="http://www.w3.org/2000/svg" xmlns:xlink="http://www.w3.org/1999/xlink"
	 x="0px" y="0px" viewBox="0 0 640 640" style="enable-background:new 0 0 640 640;" xml:space="preserve">
<path style="fill:#3F4B9E;" d="M116.927,225.988H58.934c-21.265,0-38.504-17.239-38.504-38.504V100.16
	c0-21.265,17.239-38.504,38.504-38.504h57.992c21.265,0,38.504,17.239,38.504,38.504v87.324
	C155.431,208.749,138.192,225.988,116.927,225.988z"/>
<path style="fill:#3F4B9E;" d="M47.485,152.035l-24.929-48.68c-3.15-6.152-3.354-13.397-0.555-19.717l22.15-50.006
	c3.576-8.072,11.472-13.371,20.298-13.619l40.034-1.127c8.825-0.249,17.008,4.597,21.032,12.456l24.929,48.68
	c3.15,6.152,3.354,13.397,0.555,19.717l-22.15,50.006c-3.576,8.072-11.472,13.371-20.298,13.619l-40.034,1.127
	C59.692,164.739,51.51,159.894,47.485,152.035z"/>
</svg>
